HIERARCHY
ROOT Hips
{
	OFFSET 0.000000 0.000000 0.000000
	CHANNELS 6 Xposition Yposition Zposition Xrotation Yrotation Zrotation
	JOINT LeftUpLeg_virtual
	{
		OFFSET 0.000000 0.000000 0.000000
		CHANNELS 3 Xrotation Yrotation Zrotation
		JOINT LeftUpLeg
		{
			OFFSET 11.394100 -6.187798 -0.413800
			CHANNELS 3 Xrotation Yrotation Zrotation
			JOINT LeftLeg
			{
				OFFSET 0.430247 -32.302673 3.732800
				CHANNELS 3 Xrotation Yrotation Zrotation
				JOINT LeftFoot
				{
					OFFSET -0.430247 -48.264931 -6.423300
					CHANNELS 3 Xrotation Yrotation Zrotation
					JOINT LeftToeBase
					{
						OFFSET 4.230900 -16.068199 23.438400
						CHANNELS 3 Xrotation Yrotation Zrotation
						JOINT LeftToe_End
						{
							OFFSET 4.510700 0.695400 19.974600
							CHANNELS 3 Xrotation Yrotation Zrotation
							End Site
							{
								OFFSET 0 0 0
							}
						}
					}
				}
			}
		}
	}
	JOINT RightUpLeg_virtual
	{
		OFFSET 0.000000 0.000000 0.000000
		CHANNELS 3 Xrotation Yrotation Zrotation
		JOINT RightUpLeg
		{
			OFFSET -11.333700 -6.187798 -0.413800
			CHANNELS 3 Xrotation Yrotation Zrotation
			JOINT RightLeg
			{
				OFFSET -0.430392 -32.302628 3.733000
				CHANNELS 3 Xrotation Yrotation Zrotation
				JOINT RightFoot
				{
					OFFSET 0.430392 -48.264973 -6.423500
					CHANNELS 3 Xrotation Yrotation Zrotation
					JOINT RightToeBase
					{
						OFFSET -4.230900 -16.068199 23.438400
						CHANNELS 3 Xrotation Yrotation Zrotation
						JOINT RightToe_End
						{
							OFFSET -4.510700 0.695400 19.974600
							CHANNELS 3 Xrotation Yrotation Zrotation
							End Site
							{
								OFFSET 0 0 0
							}
						}
					}
				}
			}
		}
	}
	JOINT Spine_virtual
	{
		OFFSET 0.000000 0.000000 0.000000
		CHANNELS 3 Xrotation Yrotation Zrotation
		JOINT Spine
		{
			OFFSET -0.002400 12.777504 0.315300
			CHANNELS 3 Xrotation Yrotation Zrotation
			JOINT Spine1
			{
				OFFSET -0.002067 5.816869 0.032633
				CHANNELS 3 Xrotation Yrotation Zrotation
				JOINT Spine1_split
				{
					OFFSET -0.002067 5.816869 0.032633
					CHANNELS 3 Xrotation Yrotation Zrotation
					JOINT Spine2
					{
						OFFSET -0.002067 5.816869 0.032633
						CHANNELS 3 Xrotation Yrotation Zrotation
						JOINT Neck_virtual
						{
							OFFSET 0.000000 0.000000 0.000000
							CHANNELS 3 Xrotation Yrotation Zrotation
							JOINT Neck
							{
								OFFSET -0.003700 21.199493 -0.826900
								CHANNELS 3 Xrotation Yrotation Zrotation
								JOINT Head
								{
									OFFSET 0.000000 20.442200 4.834800
									CHANNELS 3 Xrotation Yrotation Zrotation
									JOINT HeadTop_End
									{
										OFFSET 0.000000 34.668396 4.968400
										CHANNELS 3 Xrotation Yrotation Zrotation
										End Site
										{
											OFFSET 0 0 0
										}
									}
								}
							}
						}
						JOINT LeftShoulder_virtual
						{
							OFFSET 0.000000 0.000000 0.000000
							CHANNELS 3 Xrotation Yrotation Zrotation
							JOINT LeftShoulder
							{
								OFFSET 3.288150 8.794197 -1.372250
								CHANNELS 3 Xrotation Yrotation Zrotation
								JOINT LeftShoulder_split
								{
									OFFSET 3.288150 8.794197 -1.372250
									CHANNELS 3 Xrotation Yrotation Zrotation
									JOINT LeftArm
									{
										OFFSET 11.953299 -2.279007 -0.146200
										CHANNELS 3 Xrotation Yrotation Zrotation
										JOINT LeftForeArm
										{
											OFFSET 18.448900 0.000000 0.000000
											CHANNELS 3 Xrotation Yrotation Zrotation
											JOINT LeftHand
											{
												OFFSET 29.527798 0.000000 0.000000
												CHANNELS 3 Xrotation Yrotation Zrotation
												End Site
												{
													OFFSET 0 0 0
												}
											}
										}
									}
								}
							}
						}
						JOINT RightShoulder_virtual
						{
							OFFSET 0.000000 0.000000 0.000000
							CHANNELS 3 Xrotation Yrotation Zrotation
							JOINT RightShoulder
							{
								OFFSET -3.249400 8.794197 -1.372250
								CHANNELS 3 Xrotation Yrotation Zrotation
								JOINT RightShoulder_split
								{
									OFFSET -3.249400 8.794197 -1.372250
									CHANNELS 3 Xrotation Yrotation Zrotation
									JOINT RightArm
									{
										OFFSET -11.953299 -2.279007 -0.146200
										CHANNELS 3 Xrotation Yrotation Zrotation
										JOINT RightForeArm
										{
											OFFSET -18.448900 0.000000 0.000000
											CHANNELS 3 Xrotation Yrotation Zrotation
											JOINT RightHand
											{
												OFFSET -29.527802 0.000000 0.000000
												CHANNELS 3 Xrotation Yrotation Zrotation
												End Site
												{
													OFFSET 0 0 0
												}
											}
										}
									}
								}
							}
						}
					}
				}
			}
		}
	}
}
MOTION
Frames: 11
Frame Time: 0.03333333
14.743878 64.895538 -44.211864 0.000000 0.000000 0.000000 43.430461 -26.493541 11.218618 -75.961744 -6.018813 -2.046554 116.424754 -6.882645 6.667290 14.007378 -5.821863 -25.904162 -18.936749 -18.659372 -16.731933 0.000000 0.000000 0.000000 44.926584 -26.009220 11.353011 -106.150101 -4.141759 -26.582799 96.934707 -10.681060 6.024147 -16.174260 -2.496566 6.797471 -6.482794 -0.009952 0.758314 0.000000 0.000000 0.000000 44.761945 -30.534852 12.732497 35.645367 9.297621 5.265036 5.248932 2.587779 0.800338 0.617258 -0.505223 1.852284 0.000000 0.000000 0.000000 7.633123 2.343665 1.140932 -8.788966 -4.133236 0.449679 -21.176230 -17.652928 -7.220516 0.000000 0.000000 0.000000 6.375802 2.353227 0.579323 5.308768 -22.019809 -8.693655 3.375218 1.260764 -3.556268 -26.331441 -19.676308 -39.455288 1.319377 -35.948139 0.480670 0.000000 0.000000 0.000000 5.976076 2.007807 1.143393 -0.932141 27.692285 15.067517 -2.134067 1.622116 -1.315988 -50.393566 47.840629 17.356831 -0.969160 16.246283 -0.111223 0.000000 0.000000 0.000000 
15.136714 65.169334 -44.133648 0.000000 0.000000 0.000000 43.224063 -28.448062 12.003179 -76.116113 -5.366303 -1.489809 115.709319 -7.560713 6.493087 10.011988 -6.730148 -24.441337 -45.297190 -25.543938 0.604322 0.000000 0.000000 0.000000 45.170363 -27.774811 12.489481 -105.936487 -4.455074 -25.610141 97.318748 -11.336718 7.274602 -15.439036 -2.953626 6.441728 -6.009387 0.595027 0.549372 0.000000 0.000000 0.000000 44.632428 -32.391161 13.846410 35.294866 9.431754 4.435598 5.356457 2.674467 0.709470 0.438792 -0.600963 2.020780 0.000000 0.000000 0.000000 7.813796 2.366041 1.025512 -7.508567 -3.376261 -0.193884 -20.891016 -16.297800 -7.747161 0.000000 0.000000 0.000000 6.533424 2.424437 0.302407 5.673054 -22.879066 -9.053377 2.827150 1.036323 -3.425092 -24.661122 -16.923409 -39.150890 1.388066 -37.656479 0.476982 0.000000 0.000000 0.000000 6.276697 2.082921 1.024253 -0.463808 27.456664 14.482347 -1.999134 1.634355 -1.385164 -47.756785 46.052407 16.863717 -0.875035 19.541907 -0.137280 0.000000 0.000000 0.000000 
15.303500 65.477890 -43.351475 0.000000 0.000000 0.000000 43.033235 -30.215029 12.820108 -80.059024 -5.974141 -1.922089 114.771739 -7.947577 5.266268 12.203163 -8.195694 -22.630006 -65.655494 -32.903224 9.554850 0.000000 0.000000 0.000000 45.465660 -29.579067 13.762526 -105.774420 -4.948055 -24.676789 97.951736 -11.926706 8.497532 -15.469707 -3.919306 5.473755 -6.062829 1.157146 0.205637 0.000000 0.000000 0.000000 44.716108 -33.724691 14.920891 34.875342 9.660766 3.385298 5.492172 2.766753 0.597798 0.417518 -0.670191 2.072606 0.000000 0.000000 0.000000 7.794560 2.426253 0.887813 -6.616827 -2.611207 -0.941207 -20.546099 -14.664360 -8.088497 0.000000 0.000000 0.000000 6.705664 2.495016 0.069207 6.055659 -23.669816 -9.052656 2.467979 0.715444 -3.318850 -23.242516 -14.430912 -38.501107 1.317155 -39.071984 0.399896 0.000000 0.000000 0.000000 6.502770 2.214951 0.917046 0.128367 27.108688 13.520534 -1.777418 1.432105 -1.492324 -45.514342 44.635122 16.527861 -0.816693 23.266705 -0.034829 0.000000 0.000000 0.000000 
15.277936 65.859177 -42.068501 0.000000 0.000000 0.000000 42.814809 -31.781546 13.787981 -86.032038 -7.355196 -3.259326 114.192102 -6.593938 2.611585 18.349564 -7.773257 -19.499101 -80.765334 -34.826817 10.365598 0.000000 0.000000 0.000000 45.777208 -31.598163 15.274789 -105.260004 -5.622015 -24.024514 98.430969 -12.137836 9.364017 -16.019239 -5.168002 4.491943 -6.770293 1.565260 -0.183826 0.000000 0.000000 0.000000 44.947303 -34.459397 15.854652 34.527778 9.860580 2.179179 5.666997 2.834086 0.453000 0.599333 -0.569323 2.016842 0.000000 0.000000 0.000000 7.658903 2.496013 0.728183 -6.153529 -1.946487 -1.718816 -20.183607 -12.920662 -8.259310 0.000000 0.000000 0.000000 6.881761 2.553985 -0.111299 6.445567 -24.390223 -8.626874 2.263720 0.388939 -3.322439 -22.121687 -12.340834 -37.399889 1.110410 -40.309946 0.287863 0.000000 0.000000 0.000000 6.654813 2.373055 0.822006 0.751777 26.561748 12.293584 -1.408980 1.043627 -1.611899 -43.998795 43.903838 16.496143 -0.856959 26.727230 0.199239 0.000000 0.000000 0.000000 
14.929597 66.510628 -40.444775 0.000000 0.000000 0.000000 42.559967 -33.131130 14.936393 -91.969303 -8.767290 -5.606157 114.330072 -2.965105 -0.969026 23.431410 -4.624689 -15.576385 -90.420845 -30.441914 6.760289 0.000000 0.000000 0.000000 45.543889 -33.435371 16.775301 -104.033111 -6.459337 -23.836524 98.375768 -11.938640 9.665720 -17.091935 -6.569193 3.556040 -7.552780 1.772473 -0.467102 0.000000 0.000000 0.000000 45.050101 -34.726485 16.468735 34.389849 9.852234 0.925595 5.817577 2.856932 0.292094 0.875698 -0.365705 1.638685 0.000000 0.000000 0.000000 7.493370 2.538540 0.538413 -6.079420 -1.454338 -2.418245 -19.887344 -11.180567 -8.296509 0.000000 0.000000 0.000000 7.060796 2.574991 -0.256090 6.805636 -25.096825 -7.825248 2.092396 0.255118 -3.351272 -21.337545 -10.698885 -35.877430 0.894127 -41.551633 0.226766 0.000000 0.000000 0.000000 6.725834 2.509928 0.727096 1.291918 25.637050 10.797985 -0.851965 0.629335 -1.701752 -43.443261 44.020607 16.972593 -1.003713 29.537054 0.495908 0.000000 0.000000 0.000000 
14.405490 67.582268 -38.589649 0.000000 0.000000 0.000000 41.918452 -33.837280 15.909886 -95.682194 -9.854687 -7.291235 114.718191 1.892005 -4.456208 23.650396 0.410086 -12.063952 -94.193172 -21.662268 2.093311 0.000000 0.000000 0.000000 44.418967 -34.516726 17.737962 -101.666266 -7.285275 -23.947750 97.474231 -11.360256 9.358805 -18.838907 -8.008165 2.626967 -7.769110 1.753177 -0.445913 0.000000 0.000000 0.000000 44.940497 -34.362337 16.766414 34.570364 9.563433 -0.263788 5.906091 2.819045 0.133741 1.268808 -0.000046 1.255883 0.000000 0.000000 0.000000 7.383045 2.518055 0.341202 -6.295028 -1.188083 -2.932241 -19.721097 -9.601464 -8.281411 0.000000 0.000000 0.000000 7.226324 2.538417 -0.364921 7.080673 -25.795268 -6.856444 1.901971 0.464127 -3.384460 -20.912721 -9.611739 -34.073495 0.816538 -42.896402 0.301874 0.000000 0.000000 0.000000 6.736345 2.571691 0.635988 1.708480 24.296393 9.144657 -0.249401 0.347816 -1.796246 -44.167118 44.814425 18.282962 -1.234737 31.673199 0.790766 0.000000 0.000000 0.000000 
13.952144 68.915070 -36.839161 0.000000 0.000000 0.000000 40.858902 -33.435921 16.466147 -97.433584 -10.499185 -6.879670 114.670721 5.984438 -6.181334 19.195728 4.423471 -10.487445 -92.198053 -11.713085 -2.087822 0.000000 0.000000 0.000000 42.333311 -34.652442 17.978805 -97.791015 -7.987391 -24.196090 95.394916 -10.574863 8.581857 -21.078085 -9.335434 1.843442 -7.448397 1.551678 -0.118190 0.000000 0.000000 0.000000 44.499478 -33.248012 16.784044 35.093065 8.938593 -1.277267 5.861770 2.721997 -0.016237 1.409553 0.515123 0.962200 0.000000 0.000000 0.000000 7.403703 2.403301 0.172067 -6.723912 -1.114277 -3.188598 -19.720735 -8.261892 -8.259641 0.000000 0.000000 0.000000 7.284675 2.436309 -0.449413 7.202337 -26.524724 -5.967306 1.638668 0.883772 -3.481381 -20.836216 -9.042552 -32.152265 0.992052 -44.236055 0.556354 0.000000 0.000000 0.000000 6.677396 2.487069 0.552897 2.011811 22.566533 7.358667 0.189828 0.251620 -1.811769 -46.232400 45.948257 20.642391 -1.425670 33.284577 0.971940 0.000000 0.000000 0.000000 
13.560201 70.649048 -34.868786 0.000000 0.000000 0.000000 39.448150 -32.278880 16.725748 -98.198941 -11.259982 -4.101747 113.603661 8.005045 -5.458185 14.318513 5.461985 -11.886730 -85.909006 -3.889108 -5.036385 0.000000 0.000000 0.000000 39.660231 -33.746155 17.605378 -92.751988 -8.345543 -24.478384 92.197732 -9.587125 7.478721 -23.145208 -10.489422 1.614447 -7.057629 1.267600 0.326302 0.000000 0.000000 0.000000 43.726632 -31.533406 16.671413 35.856229 8.012008 -2.058326 5.664068 2.553365 -0.141581 1.365498 0.806445 0.811312 0.000000 0.000000 0.000000 7.498356 2.191721 0.053839 -7.297343 -1.149088 -3.177654 -19.875622 -7.124755 -8.273324 0.000000 0.000000 0.000000 7.245696 2.247934 -0.518177 7.140190 -27.261969 -5.297064 1.386172 1.521297 -3.535408 -21.090774 -9.087457 -30.194521 1.430724 -45.301626 0.942055 0.000000 0.000000 0.000000 6.550404 2.247595 0.467800 2.229235 20.574936 5.409474 0.329853 0.402243 -1.881511 -49.442810 46.950679 23.993177 -1.519942 34.648894 1.007778 0.000000 0.000000 0.000000 
13.195847 72.534027 -32.893192 0.000000 0.000000 0.000000 37.820345 -30.564065 16.723571 -99.061300 -11.903682 1.104979 111.145715 7.691918 -2.672085 11.649644 4.258222 -16.275883 -76.449713 0.637812 -6.116098 0.000000 0.000000 0.000000 37.305779 -32.134158 17.115795 -87.138010 -8.174910 -24.635359 88.090944 -8.274796 6.213389 -24.504653 -11.359187 2.525033 -6.963991 1.002406 0.669176 0.000000 0.000000 0.000000 42.650864 -29.493826 16.587888 36.742104 6.890612 -2.604712 5.382633 2.323139 -0.262467 0.977432 0.918381 0.826040 0.000000 0.000000 0.000000 7.622703 1.914172 0.006233 -7.935062 -1.272167 -2.936667 -20.086268 -6.150401 -8.312269 0.000000 0.000000 0.000000 7.109824 1.990859 -0.566005 6.915307 -27.954788 -4.848402 1.244835 2.091915 -3.507806 -21.629959 -9.821914 -28.109133 1.990054 -45.739448 1.336153 0.000000 0.000000 0.000000 6.394339 1.892006 0.380651 2.422891 18.618925 3.342888 0.161682 0.806000 -1.834197 -53.201392 47.495602 27.746827 -1.469327 35.767399 0.897234 0.000000 0.000000 0.000000 
12.811293 74.329285 -30.767628 0.000000 0.000000 0.000000 36.495647 -28.559487 16.722185 -100.073384 -11.523296 7.337231 106.818927 6.450469 0.398561 10.387773 2.368586 -20.937971 -64.237724 2.564069 -5.570032 0.000000 0.000000 0.000000 35.701805 -30.283262 16.967964 -81.517782 -7.358696 -24.684464 83.283481 -6.586296 4.869628 -25.052581 -11.857282 4.601967 -7.125756 0.839845 0.766076 0.000000 0.000000 0.000000 41.550739 -27.555013 16.712689 37.619838 5.697202 -2.949340 5.109361 2.062965 -0.383297 0.501109 0.706639 0.763053 0.000000 0.000000 0.000000 7.708282 1.606826 0.012030 -8.582372 -1.461034 -2.546176 -20.221397 -5.304903 -8.309842 0.000000 0.000000 0.000000 6.939752 1.695343 -0.602132 6.600549 -28.549325 -4.506412 1.223231 2.538672 -3.368376 -22.433292 -11.315525 -25.753863 2.464279 -45.374060 1.585612 0.000000 0.000000 0.000000 6.259209 1.488074 0.278184 2.613561 16.899360 1.147067 -0.202003 1.350566 -1.742747 -56.676322 47.560168 31.000764 -1.293360 36.526270 0.670028 0.000000 0.000000 0.000000 
12.243100 75.987106 -28.733456 0.000000 0.000000 0.000000 35.549960 -26.762196 16.849742 -100.396472 -9.994731 13.265818 100.088861 5.740827 2.449766 9.856130 1.233191 -23.570368 -50.344440 3.233269 -4.114705 0.000000 0.000000 0.000000 35.014446 -28.816384 17.407695 -76.437023 -6.009856 -24.597171 78.440433 -4.688340 3.704629 -24.990708 -12.100553 7.092327 -7.162170 0.832128 0.663324 0.000000 0.000000 0.000000 40.612780 -26.209702 17.107471 38.385335 4.615552 -3.128113 4.934457 1.813059 -0.484191 0.231208 0.254633 0.658072 0.000000 0.000000 0.000000 7.711704 1.325119 0.034976 -9.089232 -1.722829 -2.089201 -20.161619 -4.605674 -8.221436 0.000000 0.000000 0.000000 6.836294 1.405680 -0.621990 6.284602 -28.997066 -4.119296 1.273970 2.864553 -3.045413 -23.249354 -13.641901 -23.035771 2.714270 -44.347797 1.612696 0.000000 0.000000 0.000000 6.214610 1.139412 0.163124 2.811655 15.610983 -1.038859 -0.559000 1.899630 -1.620144 -59.361085 47.360887 32.999963 -1.116262 36.944391 0.443233 0.000000 0.000000 0.000000 
